G04 ================== begin FILE IDENTIFICATION RECORD ==================*
G04 Layout Name:  C:/USERS/USER/DESKTOP/신성욱 교수님/EXAM/allegro/QNET1.brd*
G04 Film Name:    SilkT*
G04 File Format:  Gerber RS274X*
G04 File Origin:  Cadence Allegro 17.2-P019*
G04 Origin Date:  Tue Jul 30 15:56:43 2019*
G04 *
G04 Layer:  REF DES/SILKSCREEN_TOP*
G04 Layer:  PACKAGE GEOMETRY/SILKSCREEN_TOP*
G04 Layer:  BOARD GEOMETRY/SILKSCREEN_TOP*
G04 *
G04 Offset:    (0.000 0.000)*
G04 Mirror:    No*
G04 Mode:      Positive*
G04 Rotation:  0*
G04 FullContactRelief:  No*
G04 UndefLineWidth:     0.200*
G04 ================== end FILE IDENTIFICATION RECORD ====================*
%FSLAX25Y25*MOMM*%
%IR0*IPPOS*OFA0.00000B0.00000*MIA0B0*SFA1.00000B1.00000*%
%ADD10C,.4*%
%ADD11C,.203*%
%ADD12C,.2*%
G75*
%LPD*%
G75*
G54D10*
G01X3533300Y400000D02*
Y800000D01*
X3613300D01*
X3640000Y780000D01*
X3660000Y733300D01*
X3666700Y680000D01*
X3660000Y626700D01*
X3643300Y586700D01*
X3613300Y566700D01*
X3533300D01*
G01X3741900Y800000D02*
Y513300D01*
X3755200Y453300D01*
X3781900Y413300D01*
X3815200Y400000D01*
X3848500Y413300D01*
X3875200Y453300D01*
X3888500Y513300D01*
Y800000D01*
G01X3963700D02*
Y400000D01*
X4097100D01*
G01X4175600Y453300D02*
X4202300Y420000D01*
X4232300Y400000D01*
X4258900D01*
X4285600Y420000D01*
X4305600Y453300D01*
X4315600Y500000D01*
X4308900Y546700D01*
X4292300Y586700D01*
X4262300Y613300D01*
X4222300Y626700D01*
X4198900Y653300D01*
X4188900Y700000D01*
X4195600Y746700D01*
X4212300Y780000D01*
X4235600Y800000D01*
X4258900D01*
X4282300Y786700D01*
X4302300Y753300D01*
G01X4527500Y400000D02*
X4394100D01*
Y800000D01*
X4527500D01*
G01X4474100Y606700D02*
X4394100D01*
G01X4804500Y400000D02*
Y800000D01*
X4891200Y466700D01*
X4977900Y800000D01*
Y400000D01*
G01X5106400D02*
X5079700Y406700D01*
X5056400Y433300D01*
X5036400Y473300D01*
X5023100Y520000D01*
X5016400Y573300D01*
Y626700D01*
X5023100Y680000D01*
X5036400Y726700D01*
X5056400Y766700D01*
X5079700Y793300D01*
X5106400Y800000D01*
X5133100Y793300D01*
X5156400Y766700D01*
X5176400Y726700D01*
X5189700Y680000D01*
X5196400Y626700D01*
Y573300D01*
X5189700Y520000D01*
X5176400Y473300D01*
X5156400Y433300D01*
X5133100Y406700D01*
X5106400Y400000D01*
G01X5248300D02*
Y800000D01*
X5314900D01*
X5341600Y780000D01*
X5361600Y753300D01*
X5378300Y713300D01*
X5391600Y666700D01*
X5394900Y600000D01*
X5391600Y533300D01*
X5378300Y486700D01*
X5361600Y446700D01*
X5341600Y420000D01*
X5314900Y400000D01*
X5248300D01*
G01X5463500Y800000D02*
Y513300D01*
X5476800Y453300D01*
X5503500Y413300D01*
X5536800Y400000D01*
X5570100Y413300D01*
X5596800Y453300D01*
X5610100Y513300D01*
Y800000D01*
G01X5685300D02*
Y400000D01*
X5818700D01*
G01X5883900D02*
X5967200Y800000D01*
X6050500Y400000D01*
G01X6020500Y540000D02*
X5913900D01*
G01X6182400Y800000D02*
Y400000D01*
G01X6105700Y800000D02*
X6259100D01*
G01X6357600D02*
X6437600D01*
G01X6397600D02*
Y400000D01*
G01X6357600D02*
X6437600D01*
G01X6612800D02*
X6586100Y406700D01*
X6562800Y433300D01*
X6542800Y473300D01*
X6529500Y520000D01*
X6522800Y573300D01*
Y626700D01*
X6529500Y680000D01*
X6542800Y726700D01*
X6562800Y766700D01*
X6586100Y793300D01*
X6612800Y800000D01*
X6639500Y793300D01*
X6662800Y766700D01*
X6682800Y726700D01*
X6696100Y680000D01*
X6702800Y626700D01*
Y573300D01*
X6696100Y520000D01*
X6682800Y473300D01*
X6662800Y433300D01*
X6639500Y406700D01*
X6612800Y400000D01*
G01X6751300D02*
Y800000D01*
X6904700Y400000D01*
Y800000D01*
G01X3866700Y6300000D02*
X3733300D01*
Y6700000D01*
X3866700D01*
G01X3813300Y6506700D02*
X3733300D01*
G01X4015200Y6300000D02*
Y6700000D01*
G01X4180400Y6480000D02*
X4287100D01*
X4277100Y6526700D01*
X4260400Y6553300D01*
X4237100Y6566700D01*
X4213700Y6560000D01*
X4193700Y6540000D01*
X4180400Y6493300D01*
X4173700Y6453300D01*
Y6413300D01*
X4180400Y6373300D01*
X4197100Y6333300D01*
X4217100Y6306700D01*
X4240400Y6300000D01*
X4263700Y6313300D01*
X4287100Y6353300D01*
G01X4498900Y6533300D02*
X4475600Y6560000D01*
X4455600Y6566700D01*
X4428900Y6553300D01*
X4408900Y6526700D01*
X4395600Y6480000D01*
X4392300Y6433300D01*
X4395600Y6386700D01*
X4408900Y6346700D01*
X4428900Y6313300D01*
X4455600Y6300000D01*
X4478900Y6313300D01*
X4498900Y6340000D01*
G01X4660800Y6700000D02*
Y6300000D01*
G01X4614100Y6566700D02*
X4707500D01*
G01X4829300Y6300000D02*
Y6566700D01*
G01Y6513300D02*
X4846000Y6540000D01*
X4862700Y6560000D01*
X4886000Y6566700D01*
X4902700Y6560000D01*
X4922700Y6540000D01*
G01X5091200Y6300000D02*
X5071200Y6306700D01*
X5051200Y6333300D01*
X5037900Y6380000D01*
X5031200Y6433300D01*
X5037900Y6486700D01*
X5051200Y6533300D01*
X5071200Y6560000D01*
X5091200Y6566700D01*
X5111200Y6560000D01*
X5131200Y6533300D01*
X5144500Y6486700D01*
X5147900Y6433300D01*
X5144500Y6380000D01*
X5131200Y6333300D01*
X5111200Y6306700D01*
X5091200Y6300000D01*
G01X5249700D02*
Y6566700D01*
G01Y6500000D02*
X5263100Y6533300D01*
X5283100Y6560000D01*
X5309700Y6566700D01*
X5333100Y6560000D01*
X5353100Y6533300D01*
X5363100Y6486700D01*
Y6300000D01*
G01X5521600Y6566700D02*
Y6300000D01*
G01Y6673300D02*
X5514900Y6680000D01*
Y6693300D01*
X5521600Y6700000D01*
X5528300Y6693300D01*
Y6680000D01*
X5521600Y6673300D01*
G01X5790100Y6533300D02*
X5766800Y6560000D01*
X5746800Y6566700D01*
X5720100Y6553300D01*
X5700100Y6526700D01*
X5686800Y6480000D01*
X5683500Y6433300D01*
X5686800Y6386700D01*
X5700100Y6346700D01*
X5720100Y6313300D01*
X5746800Y6300000D01*
X5770100Y6313300D01*
X5790100Y6340000D01*
G01X6240500Y6666700D02*
X6220500Y6686700D01*
X6197200Y6700000D01*
X6170500D01*
X6140500Y6680000D01*
X6117200Y6646700D01*
X6100500Y6606700D01*
X6087200Y6540000D01*
X6083900Y6480000D01*
X6090500Y6420000D01*
X6100500Y6380000D01*
X6120500Y6340000D01*
X6143900Y6313300D01*
X6167200Y6300000D01*
X6190500D01*
X6213900Y6313300D01*
X6233900Y6333300D01*
X6250500Y6360000D01*
G01X6299100Y6300000D02*
X6382400Y6700000D01*
X6465700Y6300000D01*
G01X6435700Y6440000D02*
X6329100D01*
G01X6524300Y6300000D02*
Y6700000D01*
X6590900D01*
X6617600Y6680000D01*
X6637600Y6653300D01*
X6654300Y6613300D01*
X6667600Y6566700D01*
X6670900Y6500000D01*
X6667600Y6433300D01*
X6654300Y6386700D01*
X6637600Y6346700D01*
X6617600Y6320000D01*
X6590900Y6300000D01*
X6524300D01*
G54D11*
G01X5526500Y5268500D02*
X5468900Y5181900D01*
G01D02*
X5448600Y5080000D01*
G01D02*
X5468900Y4978100D01*
G01D02*
X5526500Y4891500D01*
G01D02*
X5613100Y4833900D01*
G01D02*
X5715000Y4813600D01*
G01D02*
X5816900Y4833900D01*
G01D02*
X5903500Y4891500D01*
G01D02*
X5961100Y4978100D01*
G01D02*
X5981400Y5080000D01*
G01D02*
X5961100Y5181900D01*
G01D02*
X5903500Y5268500D01*
G01D02*
X5526500D01*
G01X5903500D02*
X5901400Y5270500D01*
G54D12*
G01X373000Y3127000D02*
X627000D01*
Y2111000D01*
X373000D01*
Y3127000D01*
G01X682900Y3114700D02*
X670200Y3106700D01*
X661700Y3097000D01*
X657500Y3085800D01*
X661700Y3072900D01*
X670200Y3063200D01*
X682900Y3053600D01*
X699800Y3050400D01*
X784500D01*
G01X657500Y2953100D02*
X784500D01*
X759100Y2972400D01*
G01X657500D02*
Y2933800D01*
G01X373000Y4127000D02*
X627000D01*
Y3365000D01*
X373000D01*
Y4127000D01*
G01X665600Y4109700D02*
X657800Y4104800D01*
X652500Y4099000D01*
X649900Y4092100D01*
X652500Y4084400D01*
X657800Y4078500D01*
X665600Y4072700D01*
X676100Y4070700D01*
X728600D01*
G01X715500Y4030000D02*
X723400Y4024200D01*
X727300Y4017300D01*
X728600Y4009600D01*
X726000Y3999800D01*
X719400Y3993000D01*
X711500Y3991100D01*
X703700Y3992000D01*
X697100Y3995900D01*
X684000Y4015400D01*
X674800Y4024200D01*
X661700Y4030000D01*
X649900Y4031900D01*
Y3991100D01*
G01X2133600Y4318000D02*
X2286000D01*
X2349500Y4254500D01*
X2476500D01*
X2540000Y4318000D01*
X2692400D01*
Y3302000D01*
X2133600D01*
Y4318000D01*
G01X2514600Y2921000D02*
X2667000D01*
X2730500Y2857500D01*
X2857500D01*
X2921000Y2921000D01*
X3073400D01*
Y1905000D01*
X2514600D01*
Y2921000D01*
G01X2937700Y4173200D02*
Y4082200D01*
X2944100Y4063100D01*
X2957000Y4050400D01*
X2973000Y4046200D01*
X2989100Y4050400D01*
X3002000Y4063100D01*
X3008400Y4082200D01*
Y4173200D01*
G01X3102500Y4046200D02*
Y4173200D01*
X3083200Y4147800D01*
G01Y4046200D02*
X3121800D01*
G01X3318700Y2776200D02*
Y2685200D01*
X3325100Y2666100D01*
X3338000Y2653400D01*
X3354000Y2649200D01*
X3370100Y2653400D01*
X3383000Y2666100D01*
X3389400Y2685200D01*
Y2776200D01*
G01X3448200Y2674600D02*
X3457800Y2659800D01*
X3470700Y2651300D01*
X3485200Y2649200D01*
X3498000Y2651300D01*
X3510900Y2661900D01*
X3518900Y2674600D01*
X3520500Y2687300D01*
X3517300Y2702100D01*
X3506100Y2712700D01*
X3494800Y2716900D01*
X3480300D01*
G01X3494800D02*
X3504500Y2723300D01*
X3512500Y2733900D01*
X3515700Y2746600D01*
X3512500Y2759300D01*
X3504500Y2769800D01*
X3490000Y2776200D01*
X3475500Y2774100D01*
X3461000Y2765600D01*
G01X3937000Y3556000D02*
G03I-254000J0D01*
G01X3145600Y3901000D02*
X3136000Y3907400D01*
X3124700Y3911600D01*
X3111900D01*
X3097400Y3905200D01*
X3086100Y3894700D01*
X3078100Y3882000D01*
X3071600Y3860800D01*
X3070000Y3841700D01*
X3073300Y3822700D01*
X3078100Y3810000D01*
X3087700Y3797300D01*
X3099000Y3788800D01*
X3110200Y3784600D01*
X3121500D01*
X3132800Y3788800D01*
X3142400Y3795200D01*
X3150500Y3803600D01*
G01X3209200Y3890400D02*
X3218800Y3903100D01*
X3230100Y3909500D01*
X3243000Y3911600D01*
X3259100Y3907400D01*
X3270300Y3896800D01*
X3273500Y3884100D01*
X3271900Y3871400D01*
X3265500Y3860800D01*
X3233300Y3839600D01*
X3218800Y3824800D01*
X3209200Y3803600D01*
X3206000Y3784600D01*
X3273500D01*
G01X5118100Y1905000D02*
X4406900D01*
Y2159000D01*
X5118100D01*
Y1905000D01*
G01X4318000Y2603500D02*
G03I-254000J0D01*
G01X4409000Y3140900D02*
X4415400Y3150500D01*
X4419600Y3161800D01*
Y3174600D01*
X4413200Y3189100D01*
X4402700Y3200400D01*
X4390000Y3208400D01*
X4368800Y3214900D01*
X4349700Y3216500D01*
X4330700Y3213200D01*
X4318000Y3208400D01*
X4305300Y3198800D01*
X4296800Y3187500D01*
X4292600Y3176300D01*
Y3165000D01*
X4296800Y3153700D01*
X4303200Y3144100D01*
X4311600Y3136000D01*
G01X4318000Y3082100D02*
X4303200Y3072500D01*
X4294700Y3059600D01*
X4292600Y3045100D01*
X4294700Y3032300D01*
X4305300Y3019400D01*
X4318000Y3011400D01*
X4330700Y3009800D01*
X4345500Y3013000D01*
X4356100Y3024200D01*
X4360300Y3035500D01*
Y3050000D01*
G01Y3035500D02*
X4366700Y3025800D01*
X4377300Y3017800D01*
X4390000Y3014600D01*
X4402700Y3017800D01*
X4413200Y3025800D01*
X4419600Y3040300D01*
X4417500Y3054800D01*
X4409000Y3069300D01*
G01X4381500Y5080000D02*
X5016500D01*
Y4572000D01*
X4381500D01*
Y5080000D01*
G01X5118100Y5270500D02*
X4406900D01*
Y5524500D01*
X5118100D01*
Y5270500D01*
G01X4406900Y5969000D02*
X5118100D01*
Y5715000D01*
X4406900D01*
Y5969000D01*
G01X5461000Y3403600D02*
Y2692400D01*
X5207000D01*
Y3403600D01*
X5461000D01*
G01X5184600Y2933700D02*
Y2855000D01*
X5160200D01*
X5152400Y2858900D01*
X5147600Y2864200D01*
X5145600Y2874700D01*
X5147600Y2885200D01*
X5153400Y2891700D01*
X5160200Y2895700D01*
X5184600D01*
G01X5160200D02*
X5145600Y2933700D01*
G01X5107800Y2921900D02*
X5102000Y2928500D01*
X5095200Y2932400D01*
X5086400Y2933700D01*
X5077600Y2931100D01*
X5070800Y2925800D01*
X5066000Y2916600D01*
X5065000Y2906200D01*
X5066900Y2895700D01*
X5071800Y2889100D01*
X5078600Y2883900D01*
X5085400Y2882500D01*
X5092200Y2883900D01*
X5101000Y2889100D01*
X5098100Y2855000D01*
X5071800D01*
G01X5080000Y3403600D02*
Y2692400D01*
X4826000D01*
Y3403600D01*
X5080000D01*
G01X4803600Y2933700D02*
Y2855000D01*
X4779200D01*
X4771400Y2858900D01*
X4766600Y2864200D01*
X4764600Y2874700D01*
X4766600Y2885200D01*
X4772400Y2891700D01*
X4779200Y2895700D01*
X4803600D01*
G01X4779200D02*
X4764600Y2933700D01*
G01X4707300D02*
X4705400Y2916600D01*
X4702500Y2902200D01*
X4698600Y2889100D01*
X4693700Y2874700D01*
X4685900Y2855000D01*
X4724900D01*
G01X4648200Y2181400D02*
X4569500D01*
Y2205800D01*
X4573400Y2213600D01*
X4578700Y2218400D01*
X4589200Y2220400D01*
X4599700Y2218400D01*
X4606200Y2212600D01*
X4610200Y2205800D01*
Y2181400D01*
G01Y2205800D02*
X4648200Y2220400D01*
G01Y2279600D02*
X4646900Y2286400D01*
X4643000Y2294200D01*
X4636400Y2299100D01*
X4627200Y2301000D01*
X4618000Y2299100D01*
X4610200Y2293200D01*
X4606200Y2284500D01*
Y2274700D01*
X4603600Y2268900D01*
X4597000Y2264000D01*
X4587900Y2262100D01*
X4578700Y2265000D01*
X4572100Y2271800D01*
X4569500Y2279600D01*
X4572100Y2287400D01*
X4578700Y2294200D01*
X4587900Y2297100D01*
X4597000Y2295200D01*
X4603600Y2290300D01*
X4606200Y2284500D01*
Y2274700D01*
X4610200Y2266000D01*
X4618000Y2260100D01*
X4627200Y2258200D01*
X4636400Y2260100D01*
X4643000Y2265000D01*
X4646900Y2272800D01*
X4648200Y2279600D01*
G01X4733100Y4536000D02*
X4723500Y4542400D01*
X4712200Y4546600D01*
X4699400D01*
X4684900Y4540200D01*
X4673600Y4529700D01*
X4665600Y4517000D01*
X4659100Y4495800D01*
X4657500Y4476700D01*
X4660800Y4457700D01*
X4665600Y4445000D01*
X4675200Y4432300D01*
X4686500Y4423800D01*
X4697700Y4419600D01*
X4709000D01*
X4720300Y4423800D01*
X4729900Y4430200D01*
X4738000Y4438600D01*
G01X4827200Y4419600D02*
Y4546600D01*
X4807900Y4521200D01*
G01Y4419600D02*
X4846500D01*
G01X5524500Y4191000D02*
G03I-254000J0D01*
G01X5174000Y5140600D02*
X5047000Y5100400D01*
X5174000Y5060100D01*
G01X5047000Y5003000D02*
X5174000D01*
Y4962800D01*
X5167600Y4949900D01*
X5159200Y4941900D01*
X5142200Y4938700D01*
X5125300Y4941900D01*
X5114700Y4951500D01*
X5108400Y4962800D01*
Y5003000D01*
G01Y4962800D02*
X5047000Y4938700D01*
G01Y4841400D02*
X5174000D01*
X5148600Y4860700D01*
G01X5047000D02*
Y4822100D01*
G01X4648200Y5546900D02*
X4569500D01*
Y5571300D01*
X4573400Y5579100D01*
X4578700Y5583900D01*
X4589200Y5585900D01*
X4599700Y5583900D01*
X4606200Y5578100D01*
X4610200Y5571300D01*
Y5546900D01*
G01Y5571300D02*
X4648200Y5585900D01*
G01Y5656800D02*
X4569500D01*
X4625900Y5620800D01*
Y5669400D01*
G01X4876800Y5692600D02*
X4955500D01*
Y5668200D01*
X4951600Y5660400D01*
X4946300Y5655600D01*
X4935800Y5653600D01*
X4925300Y5655600D01*
X4918800Y5661400D01*
X4914800Y5668200D01*
Y5692600D01*
G01Y5668200D02*
X4876800Y5653600D01*
G01X4942400Y5612900D02*
X4950300Y5607100D01*
X4954200Y5600200D01*
X4955500Y5592500D01*
X4952900Y5582700D01*
X4946300Y5575900D01*
X4938400Y5574000D01*
X4930600Y5574900D01*
X4924000Y5578800D01*
X4910900Y5598300D01*
X4901700Y5607100D01*
X4888600Y5612900D01*
X4876800Y5614800D01*
Y5574000D01*
G01X5943600Y3048000D02*
X6096000D01*
X6159500Y2984500D01*
X6286500D01*
X6350000Y3048000D01*
X6502400D01*
Y2032000D01*
X5943600D01*
Y3048000D01*
G01X5740400Y3429000D02*
X6451600D01*
Y3175000D01*
X5740400D01*
Y3429000D01*
G01X5969000Y4546600D02*
Y3835400D01*
X5715000D01*
Y4546600D01*
X5969000D01*
G01X5692600Y4076700D02*
Y3998000D01*
X5668200D01*
X5660400Y4001900D01*
X5655600Y4007200D01*
X5653600Y4017700D01*
X5655600Y4028200D01*
X5661400Y4034700D01*
X5668200Y4038700D01*
X5692600D01*
G01X5668200D02*
X5653600Y4076700D01*
G01X5615800Y4061000D02*
X5610000Y4070100D01*
X5602200Y4075400D01*
X5593400Y4076700D01*
X5585600Y4075400D01*
X5577900Y4068800D01*
X5573000Y4061000D01*
X5572000Y4053100D01*
X5574000Y4043900D01*
X5580800Y4037400D01*
X5587600Y4034700D01*
X5596300D01*
G01X5587600D02*
X5581700Y4030800D01*
X5576900Y4024200D01*
X5574900Y4016400D01*
X5576900Y4008500D01*
X5581700Y4001900D01*
X5590500Y3998000D01*
X5599300Y3999300D01*
X5608000Y4004600D01*
G01X5920500Y5496600D02*
X5939500Y5493400D01*
X5956000Y5480700D01*
X5970300Y5461700D01*
X5979800Y5439500D01*
X5984500Y5414100D01*
Y5388600D01*
X5979800Y5363200D01*
X5970300Y5341000D01*
X5956000Y5322000D01*
X5939500Y5309300D01*
X5920500Y5306100D01*
X5901500Y5309300D01*
X5885000Y5322000D01*
X5870700Y5341000D01*
X5861200Y5363200D01*
X5856500Y5388600D01*
Y5414100D01*
X5861200Y5439500D01*
X5870700Y5461700D01*
X5885000Y5480700D01*
X5901500Y5493400D01*
X5920500Y5496600D01*
G01X5901500Y5445800D02*
X5873100Y5496600D01*
G01X5730000D02*
Y5306100D01*
X5758400Y5344200D01*
G01Y5496600D02*
X5701600D01*
G01X6747700Y2903200D02*
Y2812200D01*
X6754100Y2793100D01*
X6767000Y2780400D01*
X6783000Y2776200D01*
X6799100Y2780400D01*
X6812000Y2793100D01*
X6818400Y2812200D01*
Y2903200D01*
G01X6931900Y2776200D02*
Y2903200D01*
X6872300Y2812200D01*
X6952800D01*
G01X6210300Y3152600D02*
X6289000D01*
Y3128200D01*
X6285100Y3120400D01*
X6279800Y3115600D01*
X6269300Y3113600D01*
X6258800Y3115600D01*
X6252300Y3121400D01*
X6248300Y3128200D01*
Y3152600D01*
G01Y3128200D02*
X6210300Y3113600D01*
G01X6243100Y3072900D02*
X6252300Y3066100D01*
X6257500Y3060200D01*
X6260100Y3052500D01*
X6257500Y3045600D01*
X6252300Y3040800D01*
X6244400Y3036900D01*
X6235200Y3035900D01*
X6227400Y3036900D01*
X6219500Y3040800D01*
X6212900Y3046600D01*
X6210300Y3053400D01*
X6212900Y3061200D01*
X6220800Y3068000D01*
X6232600Y3071900D01*
X6245700Y3072900D01*
X6262800Y3070900D01*
X6271900Y3068000D01*
X6281100Y3063200D01*
X6287700Y3056300D01*
X6289000Y3049500D01*
X6286400Y3042700D01*
X6279800Y3037900D01*
G01X6096000Y3835400D02*
Y4546600D01*
X6350000D01*
Y3835400D01*
X6096000D01*
G01X6372400Y4305300D02*
Y4384000D01*
X6396800D01*
X6404600Y4380100D01*
X6409400Y4374800D01*
X6411400Y4364300D01*
X6409400Y4353800D01*
X6403600Y4347300D01*
X6396800Y4343300D01*
X6372400D01*
G01X6396800D02*
X6411400Y4305300D01*
G01X6470600D02*
Y4384000D01*
X6458900Y4368300D01*
G01Y4305300D02*
X6482300D01*
G01X7112000Y4826000D02*
X6477000D01*
Y5334000D01*
X7112000D01*
Y4826000D01*
G01X6319500Y4765400D02*
X6446500Y4805600D01*
X6319500Y4845900D01*
G01X6446500Y4903000D02*
X6319500D01*
Y4943200D01*
X6325900Y4956100D01*
X6334300Y4964100D01*
X6351300Y4967300D01*
X6368200Y4964100D01*
X6378800Y4954500D01*
X6385100Y4943200D01*
Y4903000D01*
G01Y4943200D02*
X6446500Y4967300D01*
G01X6340700Y5034100D02*
X6328000Y5043700D01*
X6321600Y5055000D01*
X6319500Y5067900D01*
X6323700Y5084000D01*
X6334300Y5095200D01*
X6347000Y5098400D01*
X6359700Y5096800D01*
X6370300Y5090400D01*
X6391500Y5058200D01*
X6406300Y5043700D01*
X6427500Y5034100D01*
X6446500Y5030900D01*
Y5098400D01*
G01X7594600Y2667000D02*
X7747000D01*
X7810500Y2603500D01*
X7937500D01*
X8001000Y2667000D01*
X8153400D01*
Y1651000D01*
X7594600D01*
Y2667000D01*
G01X8699500Y2794000D02*
X8216900D01*
Y3048000D01*
X8699500D01*
Y2794000D01*
G01X8864600Y3111500D02*
X8153400D01*
Y3365500D01*
X8864600D01*
Y3111500D01*
G01X7531100Y5080000D02*
X7683500D01*
X7747000Y5016500D01*
X7874000D01*
X7937500Y5080000D01*
X8089900D01*
Y4064000D01*
X7531100D01*
Y5080000D01*
G01X8398700Y2522200D02*
Y2431200D01*
X8405100Y2412100D01*
X8418000Y2399400D01*
X8434000Y2395200D01*
X8450100Y2399400D01*
X8463000Y2412100D01*
X8469400Y2431200D01*
Y2522200D01*
G01X8528200Y2414200D02*
X8537800Y2403700D01*
X8549100Y2397300D01*
X8563500Y2395200D01*
X8578000Y2399400D01*
X8589300Y2407900D01*
X8597300Y2422700D01*
X8598900Y2439600D01*
X8595700Y2456600D01*
X8587700Y2467200D01*
X8576400Y2475600D01*
X8565200Y2477700D01*
X8553900Y2475600D01*
X8539400Y2467200D01*
X8544200Y2522200D01*
X8587700D01*
G01X8610600Y2794000D02*
Y3048000D01*
G01X8623300Y2794000D02*
Y3048000D01*
G01X8313700Y3093700D02*
Y3157200D01*
X8327200D01*
X8332700Y3154000D01*
X8336700Y3149800D01*
X8340100Y3143400D01*
X8342800Y3136000D01*
X8343500Y3125400D01*
X8342800Y3114900D01*
X8340100Y3107500D01*
X8336700Y3101100D01*
X8332700Y3096900D01*
X8327200Y3093700D01*
X8313700D01*
G01X8384400D02*
Y3157200D01*
X8376300Y3144500D01*
G01Y3093700D02*
X8392500D01*
G01X8394700Y3387900D02*
X8316000D01*
Y3412300D01*
X8319900Y3420100D01*
X8325200Y3424900D01*
X8335700Y3426900D01*
X8346200Y3424900D01*
X8352700Y3419100D01*
X8356700Y3412300D01*
Y3387900D01*
G01Y3412300D02*
X8394700Y3426900D01*
G01X8385500Y3469600D02*
X8392100Y3476400D01*
X8394700Y3484200D01*
X8392100Y3491900D01*
X8384200Y3498800D01*
X8372400Y3503600D01*
X8360600Y3505600D01*
X8346200D01*
X8334400Y3503600D01*
X8323900Y3498800D01*
X8318600Y3492900D01*
X8316000Y3486100D01*
X8318600Y3478300D01*
X8323900Y3472500D01*
X8331700Y3468600D01*
X8342200Y3466600D01*
X8351400Y3468600D01*
X8360600Y3473400D01*
X8365800Y3479300D01*
X8367200Y3486100D01*
X8364500Y3493900D01*
X8358000Y3499700D01*
X8346200Y3505600D01*
G01X8335200Y4935200D02*
Y4844200D01*
X8341600Y4825100D01*
X8354500Y4812400D01*
X8370500Y4808200D01*
X8386600Y4812400D01*
X8399500Y4825100D01*
X8405900Y4844200D01*
Y4935200D01*
G01X8469500Y4914000D02*
X8479100Y4926700D01*
X8490400Y4933100D01*
X8503300Y4935200D01*
X8519400Y4931000D01*
X8530600Y4920400D01*
X8533800Y4907700D01*
X8532200Y4895000D01*
X8525800Y4884400D01*
X8493600Y4863200D01*
X8479100Y4848400D01*
X8469500Y4827200D01*
X8466300Y4808200D01*
X8533800D01*
G01X9344600Y2870000D02*
X9352400Y2874900D01*
X9357700Y2880700D01*
X9360300Y2887600D01*
X9357700Y2895300D01*
X9352400Y2901200D01*
X9344600Y2907000D01*
X9334100Y2909000D01*
X9281600D01*
G01X9344600Y2946800D02*
X9353700Y2952600D01*
X9359000Y2960400D01*
X9360300Y2969200D01*
X9359000Y2977000D01*
X9352400Y2984700D01*
X9344600Y2989600D01*
X9336700Y2990600D01*
X9327500Y2988600D01*
X9321000Y2981800D01*
X9318300Y2975000D01*
Y2966300D01*
G01Y2975000D02*
X9314400Y2980900D01*
X9307800Y2985700D01*
X9300000Y2987700D01*
X9292100Y2985700D01*
X9285500Y2980900D01*
X9281600Y2972100D01*
X9282900Y2963300D01*
X9288200Y2954600D01*
G01X9627000Y2873000D02*
X9373000D01*
Y3381000D01*
X9627000D01*
Y2873000D01*
M02*
