G04 ================== begin FILE IDENTIFICATION RECORD ==================*
G04 Layout Name:  C:/USERS/USER/DESKTOP/신성욱 교수님/EXAM/allegro/QNET1.brd*
G04 Film Name:    skikb*
G04 File Format:  Gerber RS274X*
G04 File Origin:  Cadence Allegro 17.2-P019*
G04 Origin Date:  Tue Jul 30 15:56:43 2019*
G04 *
G04 Layer:  REF DES/SILKSCREEN_BOTTOM*
G04 Layer:  PACKAGE GEOMETRY/SILKSCREEN_TOP*
G04 Layer:  PACKAGE GEOMETRY/SILKSCREEN_BOTTOM*
G04 Layer:  BOARD GEOMETRY/SILKSCREEN_TOP*
G04 Layer:  BOARD GEOMETRY/SILKSCREEN_BOTTOM*
G04 *
G04 Offset:    (0.000 0.000)*
G04 Mirror:    No*
G04 Mode:      Positive*
G04 Rotation:  0*
G04 FullContactRelief:  No*
G04 UndefLineWidth:     0.200*
G04 ================== end FILE IDENTIFICATION RECORD ====================*
%FSLAX25Y25*MOMM*%
%IR0*IPPOS*OFA0.00000B0.00000*MIA0B0*SFA1.00000B1.00000*%
%ADD10C,.4*%
%ADD11C,.203*%
%ADD12C,.2*%
G75*
%LPD*%
G75*
G54D10*
G01X3533300Y400000D02*
Y800000D01*
X3613300D01*
X3640000Y780000D01*
X3660000Y733300D01*
X3666700Y680000D01*
X3660000Y626700D01*
X3643300Y586700D01*
X3613300Y566700D01*
X3533300D01*
G01X3741900Y800000D02*
Y513300D01*
X3755200Y453300D01*
X3781900Y413300D01*
X3815200Y400000D01*
X3848500Y413300D01*
X3875200Y453300D01*
X3888500Y513300D01*
Y800000D01*
G01X3963700D02*
Y400000D01*
X4097100D01*
G01X4175600Y453300D02*
X4202300Y420000D01*
X4232300Y400000D01*
X4258900D01*
X4285600Y420000D01*
X4305600Y453300D01*
X4315600Y500000D01*
X4308900Y546700D01*
X4292300Y586700D01*
X4262300Y613300D01*
X4222300Y626700D01*
X4198900Y653300D01*
X4188900Y700000D01*
X4195600Y746700D01*
X4212300Y780000D01*
X4235600Y800000D01*
X4258900D01*
X4282300Y786700D01*
X4302300Y753300D01*
G01X4527500Y400000D02*
X4394100D01*
Y800000D01*
X4527500D01*
G01X4474100Y606700D02*
X4394100D01*
G01X4804500Y400000D02*
Y800000D01*
X4891200Y466700D01*
X4977900Y800000D01*
Y400000D01*
G01X5106400D02*
X5079700Y406700D01*
X5056400Y433300D01*
X5036400Y473300D01*
X5023100Y520000D01*
X5016400Y573300D01*
Y626700D01*
X5023100Y680000D01*
X5036400Y726700D01*
X5056400Y766700D01*
X5079700Y793300D01*
X5106400Y800000D01*
X5133100Y793300D01*
X5156400Y766700D01*
X5176400Y726700D01*
X5189700Y680000D01*
X5196400Y626700D01*
Y573300D01*
X5189700Y520000D01*
X5176400Y473300D01*
X5156400Y433300D01*
X5133100Y406700D01*
X5106400Y400000D01*
G01X5248300D02*
Y800000D01*
X5314900D01*
X5341600Y780000D01*
X5361600Y753300D01*
X5378300Y713300D01*
X5391600Y666700D01*
X5394900Y600000D01*
X5391600Y533300D01*
X5378300Y486700D01*
X5361600Y446700D01*
X5341600Y420000D01*
X5314900Y400000D01*
X5248300D01*
G01X5463500Y800000D02*
Y513300D01*
X5476800Y453300D01*
X5503500Y413300D01*
X5536800Y400000D01*
X5570100Y413300D01*
X5596800Y453300D01*
X5610100Y513300D01*
Y800000D01*
G01X5685300D02*
Y400000D01*
X5818700D01*
G01X5883900D02*
X5967200Y800000D01*
X6050500Y400000D01*
G01X6020500Y540000D02*
X5913900D01*
G01X6182400Y800000D02*
Y400000D01*
G01X6105700Y800000D02*
X6259100D01*
G01X6357600D02*
X6437600D01*
G01X6397600D02*
Y400000D01*
G01X6357600D02*
X6437600D01*
G01X6612800D02*
X6586100Y406700D01*
X6562800Y433300D01*
X6542800Y473300D01*
X6529500Y520000D01*
X6522800Y573300D01*
Y626700D01*
X6529500Y680000D01*
X6542800Y726700D01*
X6562800Y766700D01*
X6586100Y793300D01*
X6612800Y800000D01*
X6639500Y793300D01*
X6662800Y766700D01*
X6682800Y726700D01*
X6696100Y680000D01*
X6702800Y626700D01*
Y573300D01*
X6696100Y520000D01*
X6682800Y473300D01*
X6662800Y433300D01*
X6639500Y406700D01*
X6612800Y400000D01*
G01X6751300D02*
Y800000D01*
X6904700Y400000D01*
Y800000D01*
G01X3866700Y6300000D02*
X3733300D01*
Y6700000D01*
X3866700D01*
G01X3813300Y6506700D02*
X3733300D01*
G01X4015200Y6300000D02*
Y6700000D01*
G01X4180400Y6480000D02*
X4287100D01*
X4277100Y6526700D01*
X4260400Y6553300D01*
X4237100Y6566700D01*
X4213700Y6560000D01*
X4193700Y6540000D01*
X4180400Y6493300D01*
X4173700Y6453300D01*
Y6413300D01*
X4180400Y6373300D01*
X4197100Y6333300D01*
X4217100Y6306700D01*
X4240400Y6300000D01*
X4263700Y6313300D01*
X4287100Y6353300D01*
G01X4498900Y6533300D02*
X4475600Y6560000D01*
X4455600Y6566700D01*
X4428900Y6553300D01*
X4408900Y6526700D01*
X4395600Y6480000D01*
X4392300Y6433300D01*
X4395600Y6386700D01*
X4408900Y6346700D01*
X4428900Y6313300D01*
X4455600Y6300000D01*
X4478900Y6313300D01*
X4498900Y6340000D01*
G01X4660800Y6700000D02*
Y6300000D01*
G01X4614100Y6566700D02*
X4707500D01*
G01X4829300Y6300000D02*
Y6566700D01*
G01Y6513300D02*
X4846000Y6540000D01*
X4862700Y6560000D01*
X4886000Y6566700D01*
X4902700Y6560000D01*
X4922700Y6540000D01*
G01X5091200Y6300000D02*
X5071200Y6306700D01*
X5051200Y6333300D01*
X5037900Y6380000D01*
X5031200Y6433300D01*
X5037900Y6486700D01*
X5051200Y6533300D01*
X5071200Y6560000D01*
X5091200Y6566700D01*
X5111200Y6560000D01*
X5131200Y6533300D01*
X5144500Y6486700D01*
X5147900Y6433300D01*
X5144500Y6380000D01*
X5131200Y6333300D01*
X5111200Y6306700D01*
X5091200Y6300000D01*
G01X5249700D02*
Y6566700D01*
G01Y6500000D02*
X5263100Y6533300D01*
X5283100Y6560000D01*
X5309700Y6566700D01*
X5333100Y6560000D01*
X5353100Y6533300D01*
X5363100Y6486700D01*
Y6300000D01*
G01X5521600Y6566700D02*
Y6300000D01*
G01Y6673300D02*
X5514900Y6680000D01*
Y6693300D01*
X5521600Y6700000D01*
X5528300Y6693300D01*
Y6680000D01*
X5521600Y6673300D01*
G01X5790100Y6533300D02*
X5766800Y6560000D01*
X5746800Y6566700D01*
X5720100Y6553300D01*
X5700100Y6526700D01*
X5686800Y6480000D01*
X5683500Y6433300D01*
X5686800Y6386700D01*
X5700100Y6346700D01*
X5720100Y6313300D01*
X5746800Y6300000D01*
X5770100Y6313300D01*
X5790100Y6340000D01*
G01X6240500Y6666700D02*
X6220500Y6686700D01*
X6197200Y6700000D01*
X6170500D01*
X6140500Y6680000D01*
X6117200Y6646700D01*
X6100500Y6606700D01*
X6087200Y6540000D01*
X6083900Y6480000D01*
X6090500Y6420000D01*
X6100500Y6380000D01*
X6120500Y6340000D01*
X6143900Y6313300D01*
X6167200Y6300000D01*
X6190500D01*
X6213900Y6313300D01*
X6233900Y6333300D01*
X6250500Y6360000D01*
G01X6299100Y6300000D02*
X6382400Y6700000D01*
X6465700Y6300000D01*
G01X6435700Y6440000D02*
X6329100D01*
G01X6524300Y6300000D02*
Y6700000D01*
X6590900D01*
X6617600Y6680000D01*
X6637600Y6653300D01*
X6654300Y6613300D01*
X6667600Y6566700D01*
X6670900Y6500000D01*
X6667600Y6433300D01*
X6654300Y6386700D01*
X6637600Y6346700D01*
X6617600Y6320000D01*
X6590900Y6300000D01*
X6524300D01*
G54D11*
G01X5526500Y5268500D02*
X5468900Y5181900D01*
G01D02*
X5448600Y5080000D01*
G01D02*
X5468900Y4978100D01*
G01D02*
X5526500Y4891500D01*
G01D02*
X5613100Y4833900D01*
G01D02*
X5715000Y4813600D01*
G01D02*
X5816900Y4833900D01*
G01D02*
X5903500Y4891500D01*
G01D02*
X5961100Y4978100D01*
G01D02*
X5981400Y5080000D01*
G01D02*
X5961100Y5181900D01*
G01D02*
X5903500Y5268500D01*
G01D02*
X5526500D01*
G01X5903500D02*
X5901400Y5270500D01*
G54D12*
G01X373000Y3127000D02*
X627000D01*
Y2111000D01*
X373000D01*
Y3127000D01*
G01Y4127000D02*
X627000D01*
Y3365000D01*
X373000D01*
Y4127000D01*
G01X2133600Y4318000D02*
X2286000D01*
X2349500Y4254500D01*
X2476500D01*
X2540000Y4318000D01*
X2692400D01*
Y3302000D01*
X2133600D01*
Y4318000D01*
G01X2514600Y2921000D02*
X2667000D01*
X2730500Y2857500D01*
X2857500D01*
X2921000Y2921000D01*
X3073400D01*
Y1905000D01*
X2514600D01*
Y2921000D01*
G01X3937000Y3556000D02*
G03I-254000J0D01*
G01X5118100Y1905000D02*
X4406900D01*
Y2159000D01*
X5118100D01*
Y1905000D01*
G01X4318000Y2603500D02*
G03I-254000J0D01*
G01X4381500Y5080000D02*
X5016500D01*
Y4572000D01*
X4381500D01*
Y5080000D01*
G01X5118100Y5270500D02*
X4406900D01*
Y5524500D01*
X5118100D01*
Y5270500D01*
G01X4406900Y5969000D02*
X5118100D01*
Y5715000D01*
X4406900D01*
Y5969000D01*
G01X5461000Y3403600D02*
Y2692400D01*
X5207000D01*
Y3403600D01*
X5461000D01*
G01X5080000D02*
Y2692400D01*
X4826000D01*
Y3403600D01*
X5080000D01*
G01X5524500Y4191000D02*
G03I-254000J0D01*
G01X5943600Y3048000D02*
X6096000D01*
X6159500Y2984500D01*
X6286500D01*
X6350000Y3048000D01*
X6502400D01*
Y2032000D01*
X5943600D01*
Y3048000D01*
G01X5740400Y3429000D02*
X6451600D01*
Y3175000D01*
X5740400D01*
Y3429000D01*
G01X5969000Y4546600D02*
Y3835400D01*
X5715000D01*
Y4546600D01*
X5969000D01*
G01X6096000Y3835400D02*
Y4546600D01*
X6350000D01*
Y3835400D01*
X6096000D01*
G01X7112000Y4826000D02*
X6477000D01*
Y5334000D01*
X7112000D01*
Y4826000D01*
G01X7594600Y2667000D02*
X7747000D01*
X7810500Y2603500D01*
X7937500D01*
X8001000Y2667000D01*
X8153400D01*
Y1651000D01*
X7594600D01*
Y2667000D01*
G01X8699500Y2794000D02*
X8216900D01*
Y3048000D01*
X8699500D01*
Y2794000D01*
G01X8864600Y3111500D02*
X8153400D01*
Y3365500D01*
X8864600D01*
Y3111500D01*
G01X7531100Y5080000D02*
X7683500D01*
X7747000Y5016500D01*
X7874000D01*
X7937500Y5080000D01*
X8089900D01*
Y4064000D01*
X7531100D01*
Y5080000D01*
G01X8610600Y2794000D02*
Y3048000D01*
G01X8623300Y2794000D02*
Y3048000D01*
G01X9627000Y2873000D02*
X9373000D01*
Y3381000D01*
X9627000D01*
Y2873000D01*
M02*
