G04 ================== begin FILE IDENTIFICATION RECORD ==================*
G04 Layout Name:  C:/USERS/USER/DESKTOP/신성욱 교수님/EXAM/allegro/QNET1.brd*
G04 Film Name:    TOP*
G04 File Format:  Gerber RS274X*
G04 File Origin:  Cadence Allegro 17.2-P019*
G04 Origin Date:  Tue Jul 30 15:56:43 2019*
G04 *
G04 Layer:  ETCH/TOP*
G04 Layer:  PIN/TOP*
G04 Layer:  VIA CLASS/TOP*
G04 *
G04 Offset:    (0.000 0.000)*
G04 Mirror:    No*
G04 Mode:      Positive*
G04 Rotation:  0*
G04 FullContactRelief:  No*
G04 UndefLineWidth:     0.000*
G04 ================== end FILE IDENTIFICATION RECORD ====================*
%FSLAX25Y25*MOMM*%
%IR0*IPPOS*OFA0.00000B0.00000*MIA0B0*SFA1.00000B1.00000*%
%ADD11C,1.524*%
%ADD13C,1.651*%
%ADD12R,1.524X1.524*%
%ADD15O,1.016X1.524*%
%ADD14R,1.016X1.524*%
%ADD10C,.635*%
%ADD16C,1.*%
%ADD17C,.5*%
G75*
%LPD*%
G75*
G54D10*
X500000Y500000D03*
Y6500000D03*
X9500000Y500000D03*
Y6500000D03*
G54D11*
X500000Y2238000D03*
Y3000000D03*
Y2492000D03*
Y2746000D03*
Y3746000D03*
Y3492000D03*
Y4000000D03*
X2032000Y3429000D03*
Y3683000D03*
Y3937000D03*
X2413000Y2032000D03*
Y2286000D03*
Y2540000D03*
X2794000Y3429000D03*
Y3683000D03*
Y3937000D03*
Y4191000D03*
X3175000Y2032000D03*
Y2286000D03*
Y2540000D03*
Y2794000D03*
X3683000Y3683000D03*
Y3429000D03*
X4191000Y2603500D03*
X3937000D03*
X4445000Y4699000D03*
X5270500Y4064000D03*
Y4318000D03*
X4699000Y4953000D03*
X4953000Y4699000D03*
X5842000Y2159000D03*
Y2413000D03*
Y2667000D03*
X6604000Y2159000D03*
Y2667000D03*
Y2413000D03*
Y2921000D03*
X6794500Y4953000D03*
X6540500Y5207000D03*
X7493000Y1778000D03*
Y2032000D03*
Y2286000D03*
X7429500Y4191000D03*
Y4445000D03*
X7048500Y5207000D03*
X7429500Y4699000D03*
X8255000Y1778000D03*
Y2032000D03*
Y2286000D03*
Y2540000D03*
X7962900Y2921000D03*
X8191500Y4191000D03*
Y4445000D03*
Y4699000D03*
Y4953000D03*
X9500000Y3000000D03*
Y3254000D03*
G54D12*
X2032000Y4191000D03*
X2413000Y2794000D03*
X5842000Y2921000D03*
X7493000Y2540000D03*
X7429500Y4953000D03*
X8953500Y2921000D03*
G54D13*
X4254500Y2032000D03*
Y5397500D03*
Y5842000D03*
X5270500Y2032000D03*
X5334000Y2540000D03*
X4953000D03*
X5334000Y3556000D03*
X4953000D03*
X5270500Y5397500D03*
Y5842000D03*
X5588000Y3302000D03*
X5842000Y3683000D03*
Y4699000D03*
X6604000Y3302000D03*
X6223000Y3683000D03*
Y4699000D03*
X8001000Y3238500D03*
X9017000D03*
G54D14*
X5842000Y5080000D03*
G54D15*
X5715000D03*
X5588000D03*
G54D16*
G01X8255000Y2286000D02*
X8103400D01*
X8096100Y2278700D01*
X7944800D01*
X7874000Y2349500D01*
Y2603500D01*
X7556500Y2921000D01*
X6858000D01*
X6604000Y2667000D01*
G54D17*
G01X2413000Y2286000D02*
X1524000D01*
X1270000Y2032000D01*
X526900D01*
X373400Y2185500D01*
Y3873400D01*
X500000Y4000000D01*
G01Y2492000D02*
X698500Y2690500D01*
Y3293500D01*
X500000Y3492000D01*
G01X3175000Y2794000D02*
X2984500Y2984500D01*
X1261500D01*
X500000Y3746000D01*
G01X2794000Y3429000D02*
X3683000D01*
G01X2794000Y3937000D02*
Y3683000D01*
G01Y3937000D02*
X4635500D01*
X4762500Y4064000D01*
X5270500D01*
G01X3175000Y2032000D02*
X3936900D01*
X4572000Y2667100D01*
Y3175000D01*
X4953000Y3556000D01*
G01X3937000Y2603500D02*
Y2603400D01*
X3619600Y2286000D01*
X3175000D01*
G01X3683000Y3683000D02*
X3873500Y3492500D01*
Y3238500D01*
X3175000Y2540000D01*
G01X5842000Y2667000D02*
X6159500Y2349500D01*
Y2159000D01*
X5969000Y1968500D01*
X5334000D01*
X5270500Y2032000D01*
G01X4953000Y2540000D02*
X5334000D01*
G01X5842000Y4699000D02*
Y4635500D01*
X5270500Y4064000D01*
G01X4953000Y4699000D02*
X5524500D01*
X5715000Y4889500D01*
Y5080000D01*
G01X5270500Y5397500D02*
Y5206900D01*
X5397400Y5080000D01*
X5588000D01*
G01Y3302000D02*
Y2921000D01*
X5842000Y2667000D01*
G01X5334000Y2540000D02*
X5715000D01*
X5842000Y2413000D01*
G01X7048500Y5207000D02*
Y4773900D01*
X6719600Y4445000D01*
X6223000D01*
X5334000Y3556000D01*
G01X6223000Y3683000D02*
X5842000D01*
G01Y5080000D02*
Y4699000D01*
G01X5270500Y5842000D02*
Y5397500D01*
G01X6604000Y3302000D02*
X6477400Y3175400D01*
Y2539600D01*
X6604000Y2413000D01*
G01D02*
X7366000D01*
X7493000Y2286000D01*
G01X6223000Y3683000D02*
X6413500D01*
X7429500Y4699000D01*
G01X6540500Y5207000D02*
X6794500Y4953000D01*
G01X6223000Y4699000D02*
Y4889500D01*
X6540500Y5207000D01*
G01X7048500D02*
X7429500D01*
X8191500Y4445000D01*
G01X8953500Y2921000D02*
X9294400D01*
X9373400Y3000000D01*
X9500000D01*
G01X9017000Y3238500D02*
Y2984500D01*
X8953500Y2921000D01*
M02*
